<svg version="1.1" xmlns="http://www.w3.org/2000/svg" xmlns:xlink="http://www.w3.org/1999/xlink" width="375.05828" height="220.86829" viewBox="0,0,375.05828,220.86829"><g transform="translate(-11.31634,-13.02436)"><g data-paper-data="{&quot;isPaintingLayer&quot;:true}" fill-rule="nonzero" stroke-linecap="butt" stroke-linejoin="miter" stroke-miterlimit="10" stroke-dasharray="" stroke-dashoffset="0" style="mix-blend-mode: normal"><path d="M94.87537,232.64265v-195.28529h290.24925v195.28529z" fill="#ffffff" stroke="#000000" stroke-width="2.5"/><text transform="translate(116.51655,220.7188) scale(0.44101,0.44101)" font-size="40" xml:space="preserve" fill="#000000" fill-rule="nonzero" stroke="none" stroke-width="1" stroke-linecap="butt" stroke-linejoin="miter" stroke-miterlimit="10" stroke-dasharray="" stroke-dashoffset="0" font-family="Sans Serif" font-weight="normal" text-anchor="start" style="mix-blend-mode: normal"><tspan x="0" dy="0">クリックまたはタップで閉じる</tspan></text><text transform="translate(99.88592,56.55409) scale(0.38668,0.38668)" font-size="40" xml:space="preserve" fill="#000000" fill-rule="nonzero" stroke="none" stroke-width="1" stroke-linecap="butt" stroke-linejoin="miter" stroke-miterlimit="10" stroke-dasharray="" stroke-dashoffset="0" font-family="Sans Serif" font-weight="normal" text-anchor="start" style="mix-blend-mode: normal"><tspan x="0" dy="0">・常用漢字以外の人名漢字にも</tspan><tspan x="0" dy="48px"> 対応しました。</tspan><tspan x="0" dy="48px">・絵文字に対応しました。</tspan><tspan x="0" dy="48px">・ほとんどの記号に対応しました。</tspan><tspan x="0" dy="48px">顔文字で困ることはない、、ハズ</tspan></text><path d="M73.02101,44.26082c0,3.22217 -2.61327,5.83476 -5.83476,5.83476h-50.03583c-3.22217,0 -5.83408,-2.61327 -5.83408,-5.83476v-25.40238c0,-3.22217 2.61191,-5.83408 5.83408,-5.83408h50.03516c3.22352,0 5.83476,2.61191 5.83476,5.83408v25.40238z" fill="#000000" stroke="none" stroke-width="1"/><path d="M70.70541,18.85844v25.4017c0,1.94062 -1.57786,3.51916 -3.51984,3.51916h-50.03516c-1.93995,0 -3.51916,-1.57854 -3.51916,-3.51916v-25.40238c0,-1.94062 1.57922,-3.51916 3.51916,-3.51916h50.03516c1.94198,0 3.51984,1.57922 3.51984,3.51984z" fill="#fcfeff" stroke="none" stroke-width="1"/><text transform="translate(15.6117,28.62398) scale(0.26557,0.26557)" font-size="40" xml:space="preserve" fill="#000000" fill-rule="nonzero" stroke="none" stroke-width="1" stroke-linecap="butt" stroke-linejoin="miter" stroke-miterlimit="10" stroke-dasharray="" stroke-dashoffset="0" font-family="Sans Serif" font-weight="normal" text-anchor="start" style="mix-blend-mode: normal"><tspan x="0" dy="0">クレジット</tspan></text><text transform="translate(15.61169,38.03648) scale(0.16592,0.16592)" font-size="40" xml:space="preserve" fill="#000000" fill-rule="nonzero" stroke="none" stroke-width="1" stroke-linecap="butt" stroke-linejoin="miter" stroke-miterlimit="10" stroke-dasharray="" stroke-dashoffset="0" font-family="Sans Serif" font-weight="normal" text-anchor="start" style="mix-blend-mode: normal"><tspan x="0" dy="0">アップデートログ</tspan></text></g></g></svg>