<svg version="1.1" xmlns="http://www.w3.org/2000/svg" xmlns:xlink="http://www.w3.org/1999/xlink" width="69.12721" height="79.73058" viewBox="0,0,69.12721,79.73058"><g transform="translate(-183.94754,-112.52861)"><g data-paper-data="{&quot;isPaintingLayer&quot;:true}" fill-rule="nonzero" stroke="none" stroke-width="0.60142" stroke-linejoin="miter" stroke-miterlimit="10" stroke-dasharray="" stroke-dashoffset="0" style="mix-blend-mode: normal"><path d="M232.1526,121.1976c7.2456,1.7889 13.7854,7.2003 17.7491,13.3547c2.7214,4.4685 0.7565,10.3749 0.4279,15.5294c-0.3441,5.3873 -2.2591,10.564 -2.4121,15.7998c-0.1508,3.729 0.7484,7.2782 1.5099,10.8413c0.807,3.7803 5.3297,8.133 2.9749,11.1794c-3.0026,4.1201 -9.4457,4.2533 -14.5828,4.3496c-8.0313,0.1494 -15.9866,-1.9984 -23.8462,-3.6518c-5.3852,-1.3935 -10.6791,-3.1591 -15.7095,-5.4774c-4.6751,-2.1492 -9.6592,-4.1414 -13.3429,-7.7086c-1.3149,-1.2935 -1.2199,-4.1497 -0.1802,-5.9052c1.8256,-2.7994 5.7424,-3.7378 7.9789,-6.4911c2.4365,-2.999 4.0936,-6.5903 5.7252,-10.0973c1.8753,-3.9964 3.2877,-8.4928 5.0941,-12.7119c2.1718,-5.0618 2.2243,-12.0311 6.8747,-15.0784c6.0908,-4.0919 14.5889,-5.6969 21.739,-3.9325z" fill="#b7b7b7" stroke-linecap="round"/><path d="M233.5276,112.5652c0.8081,0.1865 1.3777,1.0617 1.6454,2.3246c0.2672,1.2628 0.2319,2.9131 -0.1692,4.6512c-0.4012,1.7381 -1.0927,3.237 -1.8863,4.255c-0.7941,1.0178 -1.6896,1.5549 -2.4977,1.3684c-0.8081,-0.1865 -1.3776,-1.0617 -1.6454,-2.3246c-0.2671,-1.2628 -0.2319,-2.9132 0.1693,-4.6513c0.4011,-1.7381 1.0927,-3.2369 1.8862,-4.2549c0.7941,-1.0179 1.6896,-1.5549 2.4977,-1.3684z" fill="#8c8c8c" stroke-linecap="butt"/><path d="M220.6369,170.9924c8.973,2.0709 16.8917,4.8669 22.4366,7.7107c5.5448,2.8444 8.7158,5.7365 8.1935,7.9997c-0.5223,2.2631 -4.6401,3.4731 -10.8706,3.5998c-6.2303,0.1261 -14.5734,-0.831 -23.5464,-2.9019c-8.973,-2.0709 -16.8917,-4.8669 -22.4367,-7.7107c-5.5447,-2.8444 -8.7158,-5.7365 -8.1935,-7.9997c0.5224,-2.2632 4.6401,-3.4731 10.8706,-3.5998c6.2304,-0.1261 14.5735,0.831 23.5465,2.9019z" fill="#8c8c8c" stroke-linecap="butt"/><path d="M220.1832,173.0595c0.7278,0.168 1.2545,0.8944 1.5173,1.9327c0.2633,1.0385 0.2628,2.3889 -0.0637,3.8035c-0.3265,1.4146 -0.9178,2.6286 -1.6096,3.4467c-0.6912,0.8181 -1.483,1.2402 -2.2109,1.0723c-0.7278,-0.168 -1.2545,-0.8944 -1.5173,-1.9328c-0.2634,-1.0384 -0.2628,-2.3888 0.0637,-3.8034c0.3265,-1.4147 0.9178,-2.6287 1.6096,-3.4467c0.6912,-0.8182 1.483,-1.2403 2.2109,-1.0723z" fill="#b7b7b7" stroke-linecap="butt"/><path d="M214.7494,127.6666c3.0598,-2.7342 8.3431,-2.8487 12.5768,-2.3438c1.9488,0.2344 4.0891,2.9473 3.3582,4.1698c-0.4976,1.4258 -3.7865,0.339 -5.8151,1.1268c-3.1606,1.2482 -6.5198,2.5999 -8.8805,5.0486c-2.7566,2.8622 -2.9483,7.5971 -6.0181,10.0297c-0.9969,0.963 -3.9154,-0.5815 -3.5386,-2.0511c1.4914,-5.8096 3.8539,-11.9729 8.3173,-15.98z" fill="#d6d6d6" stroke-linecap="round"/></g></g></svg>